grf
version=1
nRows=21
nColumns=46
inDegrees=yes
endheader
time	ground_force_1_vx	ground_force_1_vy	ground_force_1_vz	ground_force_1_px	ground_force_1_py	ground_force_1_pz	ground_moment_1_mx	ground_moment_1_my	ground_moment_1_mz	ground_force_2_vx	ground_force_2_vy	ground_force_2_vz	ground_force_2_px	ground_force_2_py	ground_force_2_pz	ground_moment_2_mx	ground_moment_2_my	ground_moment_2_mz	ground_force_3_vx	ground_force_3_vy	ground_force_3_vz	ground_force_3_px	ground_force_3_py	ground_force_3_pz	ground_moment_3_mx	ground_moment_3_my	ground_moment_3_mz	ground_force_4_vx	ground_force_4_vy	ground_force_4_vz	ground_force_4_px	ground_force_4_py	ground_force_4_pz	ground_moment_4_mx	ground_moment_4_my	ground_moment_4_mz	ground_force_5_vx	ground_force_5_vy	ground_force_5_vz	ground_force_5_px	ground_force_5_py	ground_force_5_pz	ground_moment_5_mx	ground_moment_5_my	ground_moment_5_mz
4.957500	0.000000	0.000000	0.000000	0.000000	0.000000	0.000000	0.000000	0.000000	0.000000	0.000000	0.000000	0.000000	0.000000	0.000000	0.000000	0.000000	0.000000	0.000000	0.000000	0.000000	0.000000	0.000000	0.000000	0.000000	0.000000	0.000000	0.000000	76.470051	599.494890	10.193350	1.074883	0.000000	0.239316	-0.000000	7.757835	-0.000000	-77.115232	611.476649	-11.476185	1.383635	0.000000	0.273965	0.000000	-5.777346	0.000000
4.958000	0.000000	0.000000	0.000000	0.000000	0.000000	0.000000	0.000000	0.000000	0.000000	0.000000	0.000000	0.000000	0.000000	0.000000	0.000000	0.000000	0.000000	0.000000	0.000000	0.000000	0.000000	0.000000	0.000000	0.000000	0.000000	0.000000	0.000000	76.472333	599.604304	10.189345	1.074877	0.000000	0.239318	-0.000000	7.759121	-0.000000	-77.107562	611.326048	-11.498227	1.383646	0.000000	0.273993	0.000000	-5.776042	0.000000
4.958500	0.000000	0.000000	0.000000	0.000000	0.000000	0.000000	0.000000	0.000000	0.000000	0.000000	0.000000	0.000000	0.000000	0.000000	0.000000	0.000000	0.000000	0.000000	0.000000	0.000000	0.000000	0.000000	0.000000	0.000000	0.000000	0.000000	0.000000	76.474405	599.713675	10.185672	1.074871	0.000000	0.239320	-0.000000	7.760456	-0.000000	-77.100056	611.174395	-11.519480	1.383657	0.000000	0.274021	0.000000	-5.774776	0.000000
4.959000	0.000000	0.000000	0.000000	0.000000	0.000000	0.000000	0.000000	0.000000	0.000000	0.000000	0.000000	0.000000	0.000000	0.000000	0.000000	0.000000	0.000000	0.000000	0.000000	0.000000	0.000000	0.000000	0.000000	0.000000	0.000000	0.000000	0.000000	76.476242	599.822858	10.182323	1.074865	0.000000	0.239322	-0.000000	7.761849	-0.000000	-77.092710	611.021777	-11.539907	1.383668	0.000000	0.274048	0.000000	-5.773550	0.000000
4.959500	0.000000	0.000000	0.000000	0.000000	0.000000	0.000000	0.000000	0.000000	0.000000	0.000000	0.000000	0.000000	0.000000	0.000000	0.000000	0.000000	0.000000	0.000000	0.000000	0.000000	0.000000	0.000000	0.000000	0.000000	0.000000	0.000000	0.000000	76.477821	599.931715	10.179288	1.074859	0.000000	0.239324	-0.000000	7.763305	-0.000000	-77.085525	610.868256	-11.559474	1.383679	0.000000	0.274075	0.000000	-5.772367	0.000000
4.960000	0.000000	0.000000	0.000000	0.000000	0.000000	0.000000	0.000000	0.000000	0.000000	0.000000	0.000000	0.000000	0.000000	0.000000	0.000000	0.000000	0.000000	0.000000	0.000000	0.000000	0.000000	0.000000	0.000000	0.000000	0.000000	0.000000	0.000000	76.479119	600.040109	10.176558	1.074853	0.000000	0.239326	-0.000000	7.764831	-0.000000	-77.078501	610.713882	-11.578147	1.383689	0.000000	0.274102	0.000000	-5.771226	0.000000
4.960500	0.000000	0.000000	0.000000	0.000000	0.000000	0.000000	0.000000	0.000000	0.000000	0.000000	0.000000	0.000000	0.000000	0.000000	0.000000	0.000000	0.000000	0.000000	0.000000	0.000000	0.000000	0.000000	0.000000	0.000000	0.000000	0.000000	0.000000	76.480122	600.147914	10.174125	1.074847	0.000000	0.239327	-0.000000	7.766430	-0.000000	-77.071639	610.558712	-11.595894	1.383700	0.000000	0.274128	0.000000	-5.770129	0.000000
4.961000	0.000000	0.000000	0.000000	0.000000	0.000000	0.000000	0.000000	0.000000	0.000000	0.000000	0.000000	0.000000	0.000000	0.000000	0.000000	0.000000	0.000000	0.000000	0.000000	0.000000	0.000000	0.000000	0.000000	0.000000	0.000000	0.000000	0.000000	76.480829	600.255028	10.171982	1.074841	0.000000	0.239329	-0.000000	7.768104	-0.000000	-77.064936	610.402821	-11.612682	1.383710	0.000000	0.274153	0.000000	-5.769079	0.000000
4.961500	0.000000	0.000000	0.000000	0.000000	0.000000	0.000000	0.000000	0.000000	0.000000	0.000000	0.000000	0.000000	0.000000	0.000000	0.000000	0.000000	0.000000	0.000000	0.000000	0.000000	0.000000	0.000000	0.000000	0.000000	0.000000	0.000000	0.000000	76.481245	600.361370	10.170118	1.074835	0.000000	0.239331	-0.000000	7.769853	-0.000000	-77.058394	610.246288	-11.628480	1.383719	0.000000	0.274178	0.000000	-5.768077	0.000000
4.962000	0.000000	0.000000	0.000000	0.000000	0.000000	0.000000	0.000000	0.000000	0.000000	0.000000	0.000000	0.000000	0.000000	0.000000	0.000000	0.000000	0.000000	0.000000	0.000000	0.000000	0.000000	0.000000	0.000000	0.000000	0.000000	0.000000	0.000000	76.481382	600.466878	10.168514	1.074829	0.000000	0.239332	-0.000000	7.771674	-0.000000	-77.052013	610.089188	-11.643254	1.383729	0.000000	0.274203	0.000000	-5.767128	0.000000
4.962500	0.000000	0.000000	0.000000	0.000000	0.000000	0.000000	0.000000	0.000000	0.000000	0.000000	0.000000	0.000000	0.000000	0.000000	0.000000	0.000000	0.000000	0.000000	0.000000	0.000000	0.000000	0.000000	0.000000	0.000000	0.000000	0.000000	0.000000	76.481251	600.571505	10.167149	1.074823	0.000000	0.239334	-0.000000	7.773562	-0.000000	-77.045794	609.931588	-11.656968	1.383738	0.000000	0.274227	0.000000	-5.766235	0.000000
4.963000	0.000000	0.000000	0.000000	0.000000	0.000000	0.000000	0.000000	0.000000	0.000000	0.000000	0.000000	0.000000	0.000000	0.000000	0.000000	0.000000	0.000000	0.000000	0.000000	0.000000	0.000000	0.000000	0.000000	0.000000	0.000000	0.000000	0.000000	76.480867	600.675212	10.166001	1.074818	0.000000	0.239336	-0.000000	7.775509	-0.000000	-77.039727	609.773558	-11.669582	1.383746	0.000000	0.274251	0.000000	-5.765404	0.000000
4.963500	0.000000	0.000000	0.000000	0.000000	0.000000	0.000000	0.000000	0.000000	0.000000	0.000000	0.000000	0.000000	0.000000	0.000000	0.000000	0.000000	0.000000	0.000000	0.000000	0.000000	0.000000	0.000000	0.000000	0.000000	0.000000	0.000000	0.000000	76.480244	600.777966	10.165052	1.074812	0.000000	0.239337	-0.000000	7.777509	-0.000000	-77.033796	609.615174	-11.681061	1.383754	0.000000	0.274274	0.000000	-5.764636	0.000000
4.964000	0.000000	0.000000	0.000000	0.000000	0.000000	0.000000	0.000000	0.000000	0.000000	0.000000	0.000000	0.000000	0.000000	0.000000	0.000000	0.000000	0.000000	0.000000	0.000000	0.000000	0.000000	0.000000	0.000000	0.000000	0.000000	0.000000	0.000000	76.479400	600.879731	10.164287	1.074806	0.000000	0.239338	-0.000000	7.779558	-0.000000	-77.027978	609.456515	-11.691374	1.383762	0.000000	0.274297	0.000000	-5.763935	0.000000
4.964500	0.000000	0.000000	0.000000	0.000000	0.000000	0.000000	0.000000	0.000000	0.000000	0.000000	0.000000	0.000000	0.000000	0.000000	0.000000	0.000000	0.000000	0.000000	0.000000	0.000000	0.000000	0.000000	0.000000	0.000000	0.000000	0.000000	0.000000	76.478350	600.980473	10.163703	1.074800	0.000000	0.239340	-0.000000	7.781652	-0.000000	-77.022249	609.297662	-11.700497	1.383769	0.000000	0.274319	0.000000	-5.763301	0.000000
4.965000	0.000000	0.000000	0.000000	0.000000	0.000000	0.000000	0.000000	0.000000	0.000000	0.000000	0.000000	0.000000	0.000000	0.000000	0.000000	0.000000	0.000000	0.000000	0.000000	0.000000	0.000000	0.000000	0.000000	0.000000	0.000000	0.000000	0.000000	76.477110	601.080161	10.163304	1.074794	0.000000	0.239341	-0.000000	7.783790	-0.000000	-77.016585	609.138693	-11.708410	1.383776	0.000000	0.274341	0.000000	-5.762733	0.000000
4.965500	0.000000	0.000000	0.000000	0.000000	0.000000	0.000000	0.000000	0.000000	0.000000	0.000000	0.000000	0.000000	0.000000	0.000000	0.000000	0.000000	0.000000	0.000000	0.000000	0.000000	0.000000	0.000000	0.000000	0.000000	0.000000	0.000000	0.000000	76.475694	601.178769	10.163098	1.074788	0.000000	0.239342	-0.000000	7.785969	-0.000000	-77.010964	608.979693	-11.715094	1.383782	0.000000	0.274362	0.000000	-5.762229	0.000000
4.966000	0.000000	0.000000	0.000000	0.000000	0.000000	0.000000	0.000000	0.000000	0.000000	0.000000	0.000000	0.000000	0.000000	0.000000	0.000000	0.000000	0.000000	0.000000	0.000000	0.000000	0.000000	0.000000	0.000000	0.000000	0.000000	0.000000	0.000000	76.474115	601.276272	10.163096	1.074782	0.000000	0.239343	-0.000000	7.788186	-0.000000	-77.005367	608.820752	-11.720543	1.383788	0.000000	0.274383	0.000000	-5.761788	0.000000
4.966500	0.000000	0.000000	0.000000	0.000000	0.000000	0.000000	0.000000	0.000000	0.000000	0.000000	0.000000	0.000000	0.000000	0.000000	0.000000	0.000000	0.000000	0.000000	0.000000	0.000000	0.000000	0.000000	0.000000	0.000000	0.000000	0.000000	0.000000	76.472388	601.372651	10.163312	1.074776	0.000000	0.239344	-0.000000	7.790438	-0.000000	-76.999782	608.661962	-11.724753	1.383793	0.000000	0.274404	0.000000	-5.761404	0.000000
4.967000	0.000000	0.000000	0.000000	0.000000	0.000000	0.000000	0.000000	0.000000	0.000000	0.000000	0.000000	0.000000	0.000000	0.000000	0.000000	0.000000	0.000000	0.000000	0.000000	0.000000	0.000000	0.000000	0.000000	0.000000	0.000000	0.000000	0.000000	76.470532	601.467892	10.163762	1.074770	0.000000	0.239344	-0.000000	7.792720	-0.000000	-76.994199	608.503413	-11.727727	1.383797	0.000000	0.274423	0.000000	-5.761077	0.000000
4.967500	0.000000	0.000000	0.000000	0.000000	0.000000	0.000000	0.000000	0.000000	0.000000	0.000000	0.000000	0.000000	0.000000	0.000000	0.000000	0.000000	0.000000	0.000000	0.000000	0.000000	0.000000	0.000000	0.000000	0.000000	0.000000	0.000000	0.000000	76.468562	601.561985	10.164462	1.074764	0.000000	0.239345	-0.000000	7.795027	-0.000000	-76.988618	608.345193	-11.729469	1.383802	0.000000	0.274443	0.000000	-5.760802	0.000000
